<svg xmlns="http://www.w3.org/2000/svg" viewBox="0 0 181.23 181.23"><defs><style>.cls-1{fill:#fff;}.cls-1,.cls-2,.cls-3{stroke:#000;stroke-miterlimit:10;}.cls-2{fill:none;}</style></defs><g id="Circle"><circle class="cls-1" cx="90.62" cy="90.62" r="90.12"/></g><g id="Sam"><path class="cls-2" d="M99.63,139.77c-5.79,1.72-9.13,8-9.93,14s.28,12.06.11,18.1a35.84,35.84,0,0,0,.08,6.95c.39,2.29.78,8.3,2.84,9.39" transform="translate(-53.38 -88.97)"/><path class="cls-2" d="M106.77,174.82c-3.77,1.83-6.26,4.91-8.85,7.91-1.73,2-4.55,3-5.69,5.36" transform="translate(-53.38 -88.97)"/><path class="cls-2" d="M92.32,187.89c-.92,2.87-.44,6,.05,9,.45,2.78.19,5.75.73,8.47s2.08,4.36,3.41,6.51c1.2,2,1.92,4.13,3.42,5.94a69.46,69.46,0,0,1,5.51,9.06" transform="translate(-53.38 -88.97)"/><path class="cls-2" d="M126.18,234.72c-7.38-1.48-14.67-3.45-20.74-7.89" transform="translate(-53.38 -88.97)"/><path class="cls-2" d="M125.86,234.65c5.87,2.09,9,1.26,14.61,1.55.43,0,2.59.05,3.38-.57" transform="translate(-53.38 -88.97)"/><path class="cls-2" d="M142.83,236c1.67-.3,4.27-3.17,5.63-4.23,2.25-1.75,5.31-1,8.7-1.62a17.11,17.11,0,0,0,6.94-1.53c6-2.65,9.29-9.5,11-15.31" transform="translate(-53.38 -88.97)"/><path class="cls-2" d="M140.18,235.39" transform="translate(-53.38 -88.97)"/><path class="cls-2" d="M175,213.54c2.16-5.39,3.57-8.38,4.54-17.17" transform="translate(-53.38 -88.97)"/><path class="cls-2" d="M153.06,129.22a55.56,55.56,0,0,0-32-2c-7.52,1.91-17.08,8-21.76,12.68" transform="translate(-53.38 -88.97)"/><path class="cls-2" d="M152.77,129.22c5.11-1,6.43-1.59,11.63-2.65,7.52-1.53,12.16-2.16,20.63-.82" transform="translate(-53.38 -88.97)"/><path class="cls-2" d="M186.75,156.31" transform="translate(-53.38 -88.97)"/><path class="cls-2" d="M201.76,143.5c-1-7.89-4-8.31-9.76-14.28a11.67,11.67,0,0,0-7.48-3.54" transform="translate(-53.38 -88.97)"/><path class="cls-2" d="M201.76,143.37c.36,5.07-.65,10.86,1.23,15.66a68.72,68.72,0,0,1,3.71,13.91" transform="translate(-53.38 -88.97)"/><path class="cls-2" d="M189,155.58c1-1.23.51-1.79.93-3.29" transform="translate(-53.38 -88.97)"/><path class="cls-2" d="M207.3,175.46c-2.4-2.11-5.83-2-7.74-5.05-1.49-2.42-3.44-4.85-4.76-7.37-1.67-3.15-4.35-5.78-6.5-8.68" transform="translate(-53.38 -88.97)"/><path class="cls-2" d="M203.25,160.51c4-1.21,9.8,4.25,11.26,7.43" transform="translate(-53.38 -88.97)"/><path class="cls-2" d="M214.43,167.72c.4,1.2,1.1,3.8.74,5.36" transform="translate(-53.38 -88.97)"/><path class="cls-2" d="M215.24,172.7l-.52,2.23" transform="translate(-53.38 -88.97)"/><path class="cls-2" d="M214.78,174.69c-.44,1.93-5.12,3.05-7.7.58" transform="translate(-53.38 -88.97)"/><path class="cls-2" d="M148.46,130.29c-4.34,5.47-8.44,34.44-7.93,41.65" transform="translate(-53.38 -88.97)"/><path class="cls-2" d="M106.27,175.06c.71-.3,2.33-1.14,3.62-1.58s2.34-.75,3-.95c3.78-1.09,9.37-2,10.13-2.2" transform="translate(-53.38 -88.97)"/><path class="cls-2" d="M118.92,171.13c6.68-2.34,14.44,1.15,21.37.33" transform="translate(-53.38 -88.97)"/><path class="cls-2" d="M153.39,179.36" transform="translate(-53.38 -88.97)"/><path class="cls-2" d="M140.59,171.46c4.38.36,10.87,3.64,15,6.45,4.32,2.93,6.84,7.93,10.81,11.32" transform="translate(-53.38 -88.97)"/><path class="cls-2" d="M166.24,189.07c4.13,3.4,14.36,4.88,16.64-3.67" transform="translate(-53.38 -88.97)"/><path class="cls-2" d="M179.45,196.53c2.52-5.29,3-11.32,5.21-16.75,1.32-3.24,3.22-6.2,4.78-9.32a61.28,61.28,0,0,0,3.64-9.91" transform="translate(-53.38 -88.97)"/><path class="cls-3" d="M165.59,165.26a20.87,20.87,0,0,0,4.81-.73c3-.83,3.62-2.14,4.9-3.85,0-1.72-.1-2.49-2.54-3.92s-4.93-2.77-7.55-2.17a5.92,5.92,0,0,0-1.42.53" transform="translate(-53.38 -88.97)"/><path class="cls-1" d="M163.79,155.12a13.65,13.65,0,0,0-3.54,3c-1.43,1.56-2.92,3.56-2.3,5.57a14.48,14.48,0,0,0,7.64,1.57" transform="translate(-53.38 -88.97)"/><path class="cls-2" d="M133,183.93c-.27,4-1.28,24.22-3.52,27.58-2.36,3.56-9.86,8.08-13.44,10.25" transform="translate(-53.38 -88.97)"/><path class="cls-2" d="M116.29,221.52A17.09,17.09,0,0,1,105,226.73" transform="translate(-53.38 -88.97)"/><path class="cls-2" d="M122.87,213.37" transform="translate(-53.38 -88.97)"/><path class="cls-2" d="M148.87,220" transform="translate(-53.38 -88.97)"/><path class="cls-2" d="M131,206c1.24,2.29,1.29,4.5,2,7.12,1.41,5.55,9.73,8.1,15.66,6.89" transform="translate(-53.38 -88.97)"/><path class="cls-2" d="M129.91,205.54" transform="translate(-53.38 -88.97)"/><path class="cls-2" d="M148.21,220.12a44.37,44.37,0,0,0,13-3.08c13-5.35,11.76-14.37,17.74-17.56" transform="translate(-53.38 -88.97)"/><path class="cls-2" d="M163.66,213.65" transform="translate(-53.38 -88.97)"/><path class="cls-2" d="M115.81,222c-.34,1.07,1.41,2,2.41,2.53a27,27,0,0,0,7.42,2.33,30.37,30.37,0,0,0,11.74.39,15.05,15.05,0,0,0,9.57-6.9" transform="translate(-53.38 -88.97)"/><path class="cls-2" d="M132.05,197.25c-2.66,3.07-6.05,1.06-7.35.56s-3.57-.69-4.56-1.68c-1.6-1.61-4.74-4-4-6.69" transform="translate(-53.38 -88.97)"/><path class="cls-2" d="M133,185.5" transform="translate(-53.38 -88.97)"/><path class="cls-2" d="M133.82,188" transform="translate(-53.38 -88.97)"/><path class="cls-2" d="M133.75,189.17" transform="translate(-53.38 -88.97)"/><path class="cls-2" d="M134.13,174.46" transform="translate(-53.38 -88.97)"/><path class="cls-2" d="M116.11,189.7c-1-4.3,2.76-16.48,7.37-19.37" transform="translate(-53.38 -88.97)"/><path class="cls-2" d="M116.61,191.1" transform="translate(-53.38 -88.97)"/><path class="cls-2" d="M147.92,174c1.92-.42,7.39,5.06,5.84,8.6-.76,1.75-3,4.12-4.06,5.24-3,3.27-4.16,8.74-8.66,10.55-1,.4-8.09-.58-9-1.18" transform="translate(-53.38 -88.97)"/><path class="cls-2" d="M115.93,188.79c1.27,1.69,4.27,2.54,6.26,2.26a2.31,2.31,0,0,0,1-.49,2.48,2.48,0,0,0,.82-1.41,9.74,9.74,0,0,0-.11-2.62,3.93,3.93,0,0,0-1.3-2.24c-.93-.71-1.59-.2-2.71,0a2.28,2.28,0,0,1,2.17.93,2.39,2.39,0,0,1,.19,2.45c-.55,1.21-1.8.9-3,.92a18.59,18.59,0,0,1-3.24.18" transform="translate(-53.38 -88.97)"/><path class="cls-2" d="M148.5,189.41a38.65,38.65,0,0,0-4.67.46,8.53,8.53,0,0,1-3.83-.07c-1.22-.38-3.56-1.23-3.63-2.4,0-.31.89-1,1.12-1.25a10.31,10.31,0,0,1,.92-.67,6.29,6.29,0,0,1,5.24-.31c-.49.48-2.36,1.45-2.05,2a1.43,1.43,0,0,0,1,.88A15.3,15.3,0,0,0,148.5,189.41Z" transform="translate(-53.38 -88.97)"/><path class="cls-3" d="M163.9,155.12c-1.32,2.86-.4,7.9,1.81,10.15" transform="translate(-53.38 -88.97)"/><path class="cls-3" d="M100.16,158.62a5.26,5.26,0,0,1,.15-.53m2.29,9.14a8.1,8.1,0,0,1-1-1.27,9.16,9.16,0,0,1-.7-1.27,8.88,8.88,0,0,1-.55-1.52,19,19,0,0,1-.37-2.81v.06a8.81,8.81,0,0,1,.12-1.27,4.51,4.51,0,0,1,.1-.53l.15-.53a2.25,2.25,0,0,1,.08-.24,5.58,5.58,0,0,1,.28-.67c.06-.12.12-.24.19-.36" transform="translate(-53.38 -88.97)"/><path class="cls-2" d="M102.23,167.23l-.52.12c-1.22.27-2.65.45-3.58-.41a3.9,3.9,0,0,1-1-2.6c-.16-1.74-.58-3.39-.21-5.09a1.62,1.62,0,0,1,.43-1,2.78,2.78,0,0,1,1.35-.93" transform="translate(-53.38 -88.97)"/><path class="cls-3" d="M100.84,156.72c4-.69,8.19.68,12.08,2.06,1.74.61,1.29,2.73,1.64,3.75a50,50,0,0,1-12.33,4.7" transform="translate(-53.38 -88.97)"/><path class="cls-3" d="M100.43,156.8l.41-.08" transform="translate(-53.38 -88.97)"/><path class="cls-2" d="M98.71,157.32a12.1,12.1,0,0,1,1.72-.52" transform="translate(-53.38 -88.97)"/></g></svg>